<mxfile host="app.diagrams.net" modified="2023-02-20T00:36:24.494Z" agent="5.0 (Windows NT 10.0; Win64; x64) AppleWebKit/537.36 (KHTML, like Gecko) Chrome/109.0.0.0 Safari/537.36" etag="qE5iz0aTuUTZlIfp4LRd" version="20.8.20" type="github">
  <diagram name="Page-1" id="03018318-947c-dd8e-b7a3-06fadd420f32">
    <mxGraphModel dx="2713" dy="2326" grid="1" gridSize="10" guides="1" tooltips="1" connect="1" arrows="1" fold="1" page="1" pageScale="1" pageWidth="1100" pageHeight="850" background="none" math="0" shadow="0">
      <root>
        <mxCell id="0" />
        <mxCell id="1" parent="0" />
        <mxCell id="1tKlZqGgc0AsVHu_gf5q-1" value="" style="whiteSpace=wrap;html=1;rounded=0;shadow=0;labelBackgroundColor=none;strokeColor=#000000;strokeWidth=1;fillColor=none;fontFamily=Verdana;fontSize=12;fontColor=#000000;align=center;comic=1;" parent="1" vertex="1">
          <mxGeometry x="460" y="-620" width="740" height="810" as="geometry" />
        </mxCell>
        <mxCell id="1tKlZqGgc0AsVHu_gf5q-2" value="LOGO" style="whiteSpace=wrap;html=1;rounded=0;shadow=0;labelBackgroundColor=none;strokeWidth=1;fontFamily=Verdana;fontSize=28;align=center;comic=1;" parent="1" vertex="1">
          <mxGeometry x="480" y="-580" width="190" height="50" as="geometry" />
        </mxCell>
        <mxCell id="1tKlZqGgc0AsVHu_gf5q-3" value="교회 소개" style="text;html=1;points=[];align=left;verticalAlign=top;spacingTop=-4;fontSize=14;fontFamily=Verdana" parent="1" vertex="1">
          <mxGeometry x="730" y="-565" width="60" height="20" as="geometry" />
        </mxCell>
        <mxCell id="1tKlZqGgc0AsVHu_gf5q-4" value="예배와 말씀" style="text;html=1;points=[];align=left;verticalAlign=top;spacingTop=-4;fontSize=14;fontFamily=Verdana" parent="1" vertex="1">
          <mxGeometry x="830" y="-565" width="60" height="20" as="geometry" />
        </mxCell>
        <mxCell id="1tKlZqGgc0AsVHu_gf5q-5" value="양육과 교육" style="text;html=1;points=[];align=left;verticalAlign=top;spacingTop=-4;fontSize=14;fontFamily=Verdana" parent="1" vertex="1">
          <mxGeometry x="930" y="-565" width="60" height="20" as="geometry" />
        </mxCell>
        <mxCell id="1tKlZqGgc0AsVHu_gf5q-6" value="돌봄과 선교" style="text;html=1;points=[];align=left;verticalAlign=top;spacingTop=-4;fontSize=14;fontFamily=Verdana" parent="1" vertex="1">
          <mxGeometry x="1030" y="-565" width="60" height="20" as="geometry" />
        </mxCell>
        <mxCell id="1tKlZqGgc0AsVHu_gf5q-7" value="" style="line;strokeWidth=1;html=1;rounded=0;shadow=0;labelBackgroundColor=none;fillColor=none;fontFamily=Verdana;fontSize=14;fontColor=#000000;align=center;comic=1;" parent="1" vertex="1">
          <mxGeometry x="460" y="-500" width="740" height="10" as="geometry" />
        </mxCell>
        <mxCell id="1tKlZqGgc0AsVHu_gf5q-8" value="&lt;font color=&quot;#ffffff&quot;&gt;1&lt;/font&gt;" style="ellipse;whiteSpace=wrap;html=1;aspect=fixed;fillColor=#F83232;strokeColor=#b85450;" parent="1" vertex="1">
          <mxGeometry x="490" y="-360" width="20" height="20" as="geometry" />
        </mxCell>
        <mxCell id="1tKlZqGgc0AsVHu_gf5q-9" value="화면 설명" style="shape=table;startSize=30;container=1;collapsible=0;childLayout=tableLayout;fixedRows=1;rowLines=0;fontStyle=0;strokeColor=default;fontSize=16;fontColor=#000000;fillColor=#CCCCCC;" parent="1" vertex="1">
          <mxGeometry x="1240" y="-620" width="270" height="150" as="geometry" />
        </mxCell>
        <mxCell id="1tKlZqGgc0AsVHu_gf5q-10" value="" style="shape=tableRow;horizontal=0;startSize=0;swimlaneHead=0;swimlaneBody=0;top=0;left=0;bottom=0;right=0;collapsible=0;dropTarget=0;fillColor=none;points=[[0,0.5],[1,0.5]];portConstraint=eastwest;strokeColor=inherit;fontSize=16;fontColor=#FFFFFF;" parent="1tKlZqGgc0AsVHu_gf5q-9" vertex="1">
          <mxGeometry y="30" width="270" height="30" as="geometry" />
        </mxCell>
        <mxCell id="1tKlZqGgc0AsVHu_gf5q-11" value="1" style="shape=partialRectangle;html=1;whiteSpace=wrap;connectable=0;fillColor=none;top=0;left=0;bottom=0;right=0;overflow=hidden;pointerEvents=1;strokeColor=inherit;fontSize=16;fontColor=#000000;" parent="1tKlZqGgc0AsVHu_gf5q-10" vertex="1">
          <mxGeometry width="40" height="30" as="geometry">
            <mxRectangle width="40" height="30" as="alternateBounds" />
          </mxGeometry>
        </mxCell>
        <mxCell id="1tKlZqGgc0AsVHu_gf5q-12" value="제목클릭시 상세보기" style="shape=partialRectangle;html=1;whiteSpace=wrap;connectable=0;fillColor=none;top=0;left=0;bottom=0;right=0;align=left;spacingLeft=6;overflow=hidden;strokeColor=inherit;fontSize=15;fontColor=#000000;" parent="1tKlZqGgc0AsVHu_gf5q-10" vertex="1">
          <mxGeometry x="40" width="230" height="30" as="geometry">
            <mxRectangle width="230" height="30" as="alternateBounds" />
          </mxGeometry>
        </mxCell>
        <mxCell id="1tKlZqGgc0AsVHu_gf5q-13" value="" style="shape=tableRow;horizontal=0;startSize=0;swimlaneHead=0;swimlaneBody=0;top=0;left=0;bottom=0;right=0;collapsible=0;dropTarget=0;fillColor=none;points=[[0,0.5],[1,0.5]];portConstraint=eastwest;strokeColor=inherit;fontSize=16;fontColor=#FFFFFF;" parent="1tKlZqGgc0AsVHu_gf5q-9" vertex="1">
          <mxGeometry y="60" width="270" height="30" as="geometry" />
        </mxCell>
        <mxCell id="1tKlZqGgc0AsVHu_gf5q-14" value="2" style="shape=partialRectangle;html=1;whiteSpace=wrap;connectable=0;fillColor=none;top=0;left=0;bottom=0;right=0;overflow=hidden;strokeColor=inherit;fontSize=16;fontColor=#000000;" parent="1tKlZqGgc0AsVHu_gf5q-13" vertex="1">
          <mxGeometry width="40" height="30" as="geometry">
            <mxRectangle width="40" height="30" as="alternateBounds" />
          </mxGeometry>
        </mxCell>
        <mxCell id="1tKlZqGgc0AsVHu_gf5q-15" value="로그인시에만 보임" style="shape=partialRectangle;html=1;whiteSpace=wrap;connectable=0;fillColor=none;top=0;left=0;bottom=0;right=0;align=left;spacingLeft=6;overflow=hidden;strokeColor=inherit;fontSize=15;fontColor=#000000;" parent="1tKlZqGgc0AsVHu_gf5q-13" vertex="1">
          <mxGeometry x="40" width="230" height="30" as="geometry">
            <mxRectangle width="230" height="30" as="alternateBounds" />
          </mxGeometry>
        </mxCell>
        <mxCell id="1tKlZqGgc0AsVHu_gf5q-16" value="" style="shape=tableRow;horizontal=0;startSize=0;swimlaneHead=0;swimlaneBody=0;top=0;left=0;bottom=0;right=0;collapsible=0;dropTarget=0;fillColor=none;points=[[0,0.5],[1,0.5]];portConstraint=eastwest;strokeColor=inherit;fontSize=16;fontColor=#FFFFFF;" parent="1tKlZqGgc0AsVHu_gf5q-9" vertex="1">
          <mxGeometry y="90" width="270" height="30" as="geometry" />
        </mxCell>
        <mxCell id="1tKlZqGgc0AsVHu_gf5q-17" value="3" style="shape=partialRectangle;html=1;whiteSpace=wrap;connectable=0;fillColor=none;top=0;left=0;bottom=0;right=0;overflow=hidden;strokeColor=inherit;fontSize=16;fontColor=#000000;" parent="1tKlZqGgc0AsVHu_gf5q-16" vertex="1">
          <mxGeometry width="40" height="30" as="geometry">
            <mxRectangle width="40" height="30" as="alternateBounds" />
          </mxGeometry>
        </mxCell>
        <mxCell id="1tKlZqGgc0AsVHu_gf5q-18" value="클릭시 등록페이지로" style="shape=partialRectangle;html=1;whiteSpace=wrap;connectable=0;fillColor=none;top=0;left=0;bottom=0;right=0;align=left;spacingLeft=6;overflow=hidden;strokeColor=inherit;fontSize=15;fontColor=#000000;" parent="1tKlZqGgc0AsVHu_gf5q-16" vertex="1">
          <mxGeometry x="40" width="230" height="30" as="geometry">
            <mxRectangle width="230" height="30" as="alternateBounds" />
          </mxGeometry>
        </mxCell>
        <mxCell id="1tKlZqGgc0AsVHu_gf5q-19" value="" style="shape=tableRow;horizontal=0;startSize=0;swimlaneHead=0;swimlaneBody=0;top=0;left=0;bottom=0;right=0;collapsible=0;dropTarget=0;fillColor=none;points=[[0,0.5],[1,0.5]];portConstraint=eastwest;strokeColor=inherit;fontSize=16;fontColor=#FFFFFF;" parent="1tKlZqGgc0AsVHu_gf5q-9" vertex="1">
          <mxGeometry y="120" width="270" height="30" as="geometry" />
        </mxCell>
        <mxCell id="1tKlZqGgc0AsVHu_gf5q-20" value="4" style="shape=partialRectangle;html=1;whiteSpace=wrap;connectable=0;fillColor=none;top=0;left=0;bottom=0;right=0;overflow=hidden;strokeColor=inherit;fontSize=16;fontColor=#000000;" parent="1tKlZqGgc0AsVHu_gf5q-19" vertex="1">
          <mxGeometry width="40" height="30" as="geometry">
            <mxRectangle width="40" height="30" as="alternateBounds" />
          </mxGeometry>
        </mxCell>
        <mxCell id="1tKlZqGgc0AsVHu_gf5q-21" value="로그인 / 로그아웃시 로그인" style="shape=partialRectangle;html=1;whiteSpace=wrap;connectable=0;fillColor=none;top=0;left=0;bottom=0;right=0;align=left;spacingLeft=6;overflow=hidden;strokeColor=inherit;fontSize=15;fontColor=#000000;" parent="1tKlZqGgc0AsVHu_gf5q-19" vertex="1">
          <mxGeometry x="40" width="230" height="30" as="geometry">
            <mxRectangle width="230" height="30" as="alternateBounds" />
          </mxGeometry>
        </mxCell>
        <mxCell id="1tKlZqGgc0AsVHu_gf5q-22" value="" style="line;strokeWidth=1;html=1;rounded=0;shadow=0;labelBackgroundColor=none;fillColor=none;fontFamily=Verdana;fontSize=14;fontColor=#000000;align=center;comic=1;" parent="1" vertex="1">
          <mxGeometry x="460" y="110" width="740" height="10" as="geometry" />
        </mxCell>
        <mxCell id="1tKlZqGgc0AsVHu_gf5q-23" value="로그인" style="text;html=1;strokeColor=none;fillColor=none;align=center;verticalAlign=middle;whiteSpace=wrap;rounded=0;fontColor=#000000;" parent="1" vertex="1">
          <mxGeometry x="1110" y="140" width="60" height="30" as="geometry" />
        </mxCell>
        <mxCell id="1tKlZqGgc0AsVHu_gf5q-24" value="FOOTER" style="text;html=1;strokeColor=none;fillColor=none;align=center;verticalAlign=middle;whiteSpace=wrap;rounded=0;fontColor=#000000;" parent="1" vertex="1">
          <mxGeometry x="480" y="140" width="60" height="30" as="geometry" />
        </mxCell>
        <mxCell id="1tKlZqGgc0AsVHu_gf5q-25" value="&lt;font color=&quot;#ffffff&quot;&gt;2&lt;/font&gt;" style="ellipse;whiteSpace=wrap;html=1;aspect=fixed;fillColor=#F83232;strokeColor=#b85450;" parent="1" vertex="1">
          <mxGeometry x="730" y="40" width="20" height="20" as="geometry" />
        </mxCell>
        <mxCell id="1tKlZqGgc0AsVHu_gf5q-26" value="&lt;font color=&quot;#ffffff&quot;&gt;3&lt;/font&gt;" style="ellipse;whiteSpace=wrap;html=1;aspect=fixed;fillColor=#F83232;strokeColor=#b85450;" parent="1" vertex="1">
          <mxGeometry x="1110" y="-460" width="20" height="20" as="geometry" />
        </mxCell>
        <mxCell id="1tKlZqGgc0AsVHu_gf5q-27" value="&lt;font color=&quot;#ffffff&quot;&gt;4&lt;/font&gt;" style="ellipse;whiteSpace=wrap;html=1;aspect=fixed;fillColor=#F83232;strokeColor=#b85450;" parent="1" vertex="1">
          <mxGeometry x="1100" y="130" width="20" height="20" as="geometry" />
        </mxCell>
        <mxCell id="1tKlZqGgc0AsVHu_gf5q-28" value="제목" style="text;html=1;points=[];align=left;verticalAlign=top;spacingTop=-4;fontSize=14;fontFamily=Verdana" parent="1" vertex="1">
          <mxGeometry x="530" y="-400" width="60" height="20" as="geometry" />
        </mxCell>
        <mxCell id="1tKlZqGgc0AsVHu_gf5q-29" value="설교자" style="text;html=1;points=[];align=left;verticalAlign=top;spacingTop=-4;fontSize=14;fontFamily=Verdana" parent="1" vertex="1">
          <mxGeometry x="910" y="-400" width="60" height="20" as="geometry" />
        </mxCell>
        <mxCell id="1tKlZqGgc0AsVHu_gf5q-30" value="&lt;font style=&quot;font-size: 18px;&quot;&gt;예배설교&lt;/font&gt;" style="text;html=1;points=[];align=left;verticalAlign=top;spacingTop=-4;fontSize=14;fontFamily=Verdana" parent="1" vertex="1">
          <mxGeometry x="500" y="-480" width="60" height="20" as="geometry" />
        </mxCell>
        <mxCell id="1tKlZqGgc0AsVHu_gf5q-31" value="2023년 02월 05일 - 빌립보서 4장 10-23절" style="text;html=1;points=[];align=left;verticalAlign=top;spacingTop=-4;fontSize=14;fontFamily=Verdana" parent="1" vertex="1">
          <mxGeometry x="510" y="-350" width="60" height="20" as="geometry" />
        </mxCell>
        <mxCell id="1tKlZqGgc0AsVHu_gf5q-32" value="2023년 01월 29일 - 사무엘상 17장 17-49절" style="text;html=1;points=[];align=left;verticalAlign=top;spacingTop=-4;fontSize=14;fontFamily=Verdana" parent="1" vertex="1">
          <mxGeometry x="510" y="-310" width="60" height="20" as="geometry" />
        </mxCell>
        <mxCell id="1tKlZqGgc0AsVHu_gf5q-33" value="홍길동 목사" style="text;html=1;points=[];align=left;verticalAlign=top;spacingTop=-4;fontSize=14;fontFamily=Verdana" parent="1" vertex="1">
          <mxGeometry x="900" y="-350" width="60" height="20" as="geometry" />
        </mxCell>
        <mxCell id="1tKlZqGgc0AsVHu_gf5q-34" value="홍길동 목사" style="text;html=1;points=[];align=left;verticalAlign=top;spacingTop=-4;fontSize=14;fontFamily=Verdana" parent="1" vertex="1">
          <mxGeometry x="900" y="-310" width="60" height="20" as="geometry" />
        </mxCell>
        <mxCell id="1tKlZqGgc0AsVHu_gf5q-35" value="2023년 01월 22일 - 빌립보서 4장 1~9절" style="text;html=1;points=[];align=left;verticalAlign=top;spacingTop=-4;fontSize=14;fontFamily=Verdana" parent="1" vertex="1">
          <mxGeometry x="510" y="-270" width="60" height="20" as="geometry" />
        </mxCell>
        <mxCell id="1tKlZqGgc0AsVHu_gf5q-36" value="홍길동 목사" style="text;html=1;points=[];align=left;verticalAlign=top;spacingTop=-4;fontSize=14;fontFamily=Verdana" parent="1" vertex="1">
          <mxGeometry x="900" y="-270" width="60" height="20" as="geometry" />
        </mxCell>
        <mxCell id="1tKlZqGgc0AsVHu_gf5q-37" value="2023년 01월 22일 - 빌립보서 4장 1~9절" style="text;html=1;points=[];align=left;verticalAlign=top;spacingTop=-4;fontSize=14;fontFamily=Verdana" parent="1" vertex="1">
          <mxGeometry x="510" y="-230" width="60" height="20" as="geometry" />
        </mxCell>
        <mxCell id="1tKlZqGgc0AsVHu_gf5q-38" value="2023년 01월 22일 - 빌립보서 4장 1~9절" style="text;html=1;points=[];align=left;verticalAlign=top;spacingTop=-4;fontSize=14;fontFamily=Verdana" parent="1" vertex="1">
          <mxGeometry x="510" y="-190" width="60" height="20" as="geometry" />
        </mxCell>
        <mxCell id="1tKlZqGgc0AsVHu_gf5q-39" value="홍길동 목사" style="text;html=1;points=[];align=left;verticalAlign=top;spacingTop=-4;fontSize=14;fontFamily=Verdana" parent="1" vertex="1">
          <mxGeometry x="900" y="-230" width="60" height="20" as="geometry" />
        </mxCell>
        <mxCell id="1tKlZqGgc0AsVHu_gf5q-40" value="홍길동 목사" style="text;html=1;points=[];align=left;verticalAlign=top;spacingTop=-4;fontSize=14;fontFamily=Verdana" parent="1" vertex="1">
          <mxGeometry x="900" y="-190" width="60" height="20" as="geometry" />
        </mxCell>
        <mxCell id="1tKlZqGgc0AsVHu_gf5q-41" value="1" style="rounded=0;whiteSpace=wrap;html=1;fontSize=18;" parent="1" vertex="1">
          <mxGeometry x="750" y="30" width="20" height="20" as="geometry" />
        </mxCell>
        <mxCell id="1tKlZqGgc0AsVHu_gf5q-42" value="2" style="rounded=0;whiteSpace=wrap;html=1;fontSize=18;" parent="1" vertex="1">
          <mxGeometry x="780" y="30" width="20" height="20" as="geometry" />
        </mxCell>
        <mxCell id="1tKlZqGgc0AsVHu_gf5q-43" value="3" style="rounded=0;whiteSpace=wrap;html=1;fontSize=18;" parent="1" vertex="1">
          <mxGeometry x="810" y="30" width="20" height="20" as="geometry" />
        </mxCell>
        <mxCell id="1tKlZqGgc0AsVHu_gf5q-44" value="4" style="rounded=0;whiteSpace=wrap;html=1;fontSize=18;" parent="1" vertex="1">
          <mxGeometry x="840" y="30" width="20" height="20" as="geometry" />
        </mxCell>
        <mxCell id="1tKlZqGgc0AsVHu_gf5q-45" value="5" style="rounded=0;whiteSpace=wrap;html=1;fontSize=18;" parent="1" vertex="1">
          <mxGeometry x="870" y="30" width="20" height="20" as="geometry" />
        </mxCell>
        <mxCell id="1tKlZqGgc0AsVHu_gf5q-46" value="&amp;gt;" style="rounded=0;whiteSpace=wrap;html=1;fontSize=18;" parent="1" vertex="1">
          <mxGeometry x="900" y="30" width="20" height="20" as="geometry" />
        </mxCell>
        <mxCell id="1tKlZqGgc0AsVHu_gf5q-47" value="&amp;gt;&amp;gt;" style="rounded=0;whiteSpace=wrap;html=1;fontSize=18;" parent="1" vertex="1">
          <mxGeometry x="930" y="30" width="20" height="20" as="geometry" />
        </mxCell>
        <mxCell id="1tKlZqGgc0AsVHu_gf5q-48" value="2023년 01월 22일 - 빌립보서 4장 1~9절" style="text;html=1;points=[];align=left;verticalAlign=top;spacingTop=-4;fontSize=14;fontFamily=Verdana" parent="1" vertex="1">
          <mxGeometry x="510" y="-150" width="60" height="20" as="geometry" />
        </mxCell>
        <mxCell id="1tKlZqGgc0AsVHu_gf5q-49" value="2023년 01월 22일 - 빌립보서 4장 1~9절" style="text;html=1;points=[];align=left;verticalAlign=top;spacingTop=-4;fontSize=14;fontFamily=Verdana" parent="1" vertex="1">
          <mxGeometry x="510" y="-110" width="60" height="20" as="geometry" />
        </mxCell>
        <mxCell id="1tKlZqGgc0AsVHu_gf5q-50" value="2023년 01월 22일 - 빌립보서 4장 1~9절" style="text;html=1;points=[];align=left;verticalAlign=top;spacingTop=-4;fontSize=14;fontFamily=Verdana" parent="1" vertex="1">
          <mxGeometry x="510" y="-70" width="60" height="20" as="geometry" />
        </mxCell>
        <mxCell id="1tKlZqGgc0AsVHu_gf5q-51" value="2023년 01월 22일 - 빌립보서 4장 1~9절" style="text;html=1;points=[];align=left;verticalAlign=top;spacingTop=-4;fontSize=14;fontFamily=Verdana" parent="1" vertex="1">
          <mxGeometry x="510" y="-30" width="60" height="20" as="geometry" />
        </mxCell>
        <mxCell id="1tKlZqGgc0AsVHu_gf5q-52" value="홍길동 목사" style="text;html=1;points=[];align=left;verticalAlign=top;spacingTop=-4;fontSize=14;fontFamily=Verdana" parent="1" vertex="1">
          <mxGeometry x="900" y="-150" width="60" height="20" as="geometry" />
        </mxCell>
        <mxCell id="1tKlZqGgc0AsVHu_gf5q-53" value="홍길동 목사" style="text;html=1;points=[];align=left;verticalAlign=top;spacingTop=-4;fontSize=14;fontFamily=Verdana" parent="1" vertex="1">
          <mxGeometry x="900" y="-110" width="60" height="20" as="geometry" />
        </mxCell>
        <mxCell id="1tKlZqGgc0AsVHu_gf5q-54" value="홍길동 목사" style="text;html=1;points=[];align=left;verticalAlign=top;spacingTop=-4;fontSize=14;fontFamily=Verdana" parent="1" vertex="1">
          <mxGeometry x="900" y="-70" width="60" height="20" as="geometry" />
        </mxCell>
        <mxCell id="1tKlZqGgc0AsVHu_gf5q-55" value="홍길동 목사" style="text;html=1;points=[];align=left;verticalAlign=top;spacingTop=-4;fontSize=14;fontFamily=Verdana" parent="1" vertex="1">
          <mxGeometry x="900" y="-30" width="60" height="20" as="geometry" />
        </mxCell>
        <mxCell id="1tKlZqGgc0AsVHu_gf5q-56" value="&lt;span style=&quot;font-size: 14px;&quot;&gt;등록하기&lt;/span&gt;" style="rounded=0;whiteSpace=wrap;html=1;fontSize=18;" parent="1" vertex="1">
          <mxGeometry x="1037.5" y="-440" width="80" height="20" as="geometry" />
        </mxCell>
        <mxCell id="1tKlZqGgc0AsVHu_gf5q-57" value="작성일" style="text;html=1;points=[];align=left;verticalAlign=top;spacingTop=-4;fontSize=14;fontFamily=Verdana" parent="1" vertex="1">
          <mxGeometry x="1067.5" y="-400" width="60" height="20" as="geometry" />
        </mxCell>
        <mxCell id="1tKlZqGgc0AsVHu_gf5q-58" value="2023/02/05" style="text;html=1;points=[];align=left;verticalAlign=top;spacingTop=-4;fontSize=14;fontFamily=Verdana" parent="1" vertex="1">
          <mxGeometry x="1047.5" y="-350" width="60" height="20" as="geometry" />
        </mxCell>
        <mxCell id="1tKlZqGgc0AsVHu_gf5q-59" value="2023/02/05" style="text;html=1;points=[];align=left;verticalAlign=top;spacingTop=-4;fontSize=14;fontFamily=Verdana" parent="1" vertex="1">
          <mxGeometry x="1047.5" y="-310" width="60" height="20" as="geometry" />
        </mxCell>
        <mxCell id="1tKlZqGgc0AsVHu_gf5q-60" value="2023/02/05" style="text;html=1;points=[];align=left;verticalAlign=top;spacingTop=-4;fontSize=14;fontFamily=Verdana" parent="1" vertex="1">
          <mxGeometry x="1047.5" y="-270" width="60" height="20" as="geometry" />
        </mxCell>
        <mxCell id="1tKlZqGgc0AsVHu_gf5q-61" value="2023/02/05" style="text;html=1;points=[];align=left;verticalAlign=top;spacingTop=-4;fontSize=14;fontFamily=Verdana" parent="1" vertex="1">
          <mxGeometry x="1047.5" y="-230" width="60" height="20" as="geometry" />
        </mxCell>
        <mxCell id="1tKlZqGgc0AsVHu_gf5q-62" value="2023/02/05" style="text;html=1;points=[];align=left;verticalAlign=top;spacingTop=-4;fontSize=14;fontFamily=Verdana" parent="1" vertex="1">
          <mxGeometry x="1047.5" y="-190" width="60" height="20" as="geometry" />
        </mxCell>
        <mxCell id="1tKlZqGgc0AsVHu_gf5q-63" value="2023/02/05" style="text;html=1;points=[];align=left;verticalAlign=top;spacingTop=-4;fontSize=14;fontFamily=Verdana" parent="1" vertex="1">
          <mxGeometry x="1047.5" y="-150" width="60" height="20" as="geometry" />
        </mxCell>
        <mxCell id="1tKlZqGgc0AsVHu_gf5q-64" value="2023/02/05" style="text;html=1;points=[];align=left;verticalAlign=top;spacingTop=-4;fontSize=14;fontFamily=Verdana" parent="1" vertex="1">
          <mxGeometry x="1047.5" y="-110" width="60" height="20" as="geometry" />
        </mxCell>
        <mxCell id="1tKlZqGgc0AsVHu_gf5q-65" value="2023/02/05" style="text;html=1;points=[];align=left;verticalAlign=top;spacingTop=-4;fontSize=14;fontFamily=Verdana" parent="1" vertex="1">
          <mxGeometry x="1047.5" y="-70" width="60" height="20" as="geometry" />
        </mxCell>
        <mxCell id="1tKlZqGgc0AsVHu_gf5q-66" value="2023/02/05" style="text;html=1;points=[];align=left;verticalAlign=top;spacingTop=-4;fontSize=14;fontFamily=Verdana" parent="1" vertex="1">
          <mxGeometry x="1047.5" y="-30" width="60" height="20" as="geometry" />
        </mxCell>
        <mxCell id="1tKlZqGgc0AsVHu_gf5q-67" value="" style="whiteSpace=wrap;html=1;rounded=0;shadow=0;labelBackgroundColor=none;strokeColor=#000000;strokeWidth=1;fillColor=none;fontFamily=Verdana;fontSize=12;fontColor=#000000;align=center;comic=1;" parent="1" vertex="1">
          <mxGeometry x="1580" y="-620" width="740" height="810" as="geometry" />
        </mxCell>
        <mxCell id="1tKlZqGgc0AsVHu_gf5q-68" value="LOGO" style="whiteSpace=wrap;html=1;rounded=0;shadow=0;labelBackgroundColor=none;strokeWidth=1;fontFamily=Verdana;fontSize=28;align=center;comic=1;" parent="1" vertex="1">
          <mxGeometry x="1600" y="-580" width="190" height="50" as="geometry" />
        </mxCell>
        <mxCell id="1tKlZqGgc0AsVHu_gf5q-69" value="교회 소개" style="text;html=1;points=[];align=left;verticalAlign=top;spacingTop=-4;fontSize=14;fontFamily=Verdana" parent="1" vertex="1">
          <mxGeometry x="1850" y="-565" width="60" height="20" as="geometry" />
        </mxCell>
        <mxCell id="1tKlZqGgc0AsVHu_gf5q-70" value="예배와 말씀" style="text;html=1;points=[];align=left;verticalAlign=top;spacingTop=-4;fontSize=14;fontFamily=Verdana" parent="1" vertex="1">
          <mxGeometry x="1950" y="-565" width="60" height="20" as="geometry" />
        </mxCell>
        <mxCell id="1tKlZqGgc0AsVHu_gf5q-71" value="양육과 교육" style="text;html=1;points=[];align=left;verticalAlign=top;spacingTop=-4;fontSize=14;fontFamily=Verdana" parent="1" vertex="1">
          <mxGeometry x="2050" y="-565" width="60" height="20" as="geometry" />
        </mxCell>
        <mxCell id="1tKlZqGgc0AsVHu_gf5q-72" value="돌봄과 선교" style="text;html=1;points=[];align=left;verticalAlign=top;spacingTop=-4;fontSize=14;fontFamily=Verdana" parent="1" vertex="1">
          <mxGeometry x="2150" y="-565" width="60" height="20" as="geometry" />
        </mxCell>
        <mxCell id="1tKlZqGgc0AsVHu_gf5q-73" value="" style="line;strokeWidth=1;html=1;rounded=0;shadow=0;labelBackgroundColor=none;fillColor=none;fontFamily=Verdana;fontSize=14;fontColor=#000000;align=center;comic=1;" parent="1" vertex="1">
          <mxGeometry x="1580" y="-500" width="740" height="10" as="geometry" />
        </mxCell>
        <mxCell id="1tKlZqGgc0AsVHu_gf5q-74" value="&lt;font color=&quot;#ffffff&quot;&gt;1&lt;/font&gt;" style="ellipse;whiteSpace=wrap;html=1;aspect=fixed;fillColor=#F83232;strokeColor=#b85450;" parent="1" vertex="1">
          <mxGeometry x="1650" y="-340" width="20" height="20" as="geometry" />
        </mxCell>
        <mxCell id="1tKlZqGgc0AsVHu_gf5q-75" value="화면 설명" style="shape=table;startSize=30;container=1;collapsible=0;childLayout=tableLayout;fixedRows=1;rowLines=0;fontStyle=0;strokeColor=default;fontSize=16;fontColor=#000000;fillColor=#CCCCCC;" parent="1" vertex="1">
          <mxGeometry x="2360" y="-620" width="270" height="150" as="geometry" />
        </mxCell>
        <mxCell id="1tKlZqGgc0AsVHu_gf5q-76" value="" style="shape=tableRow;horizontal=0;startSize=0;swimlaneHead=0;swimlaneBody=0;top=0;left=0;bottom=0;right=0;collapsible=0;dropTarget=0;fillColor=none;points=[[0,0.5],[1,0.5]];portConstraint=eastwest;strokeColor=inherit;fontSize=16;fontColor=#FFFFFF;" parent="1tKlZqGgc0AsVHu_gf5q-75" vertex="1">
          <mxGeometry y="30" width="270" height="30" as="geometry" />
        </mxCell>
        <mxCell id="1tKlZqGgc0AsVHu_gf5q-77" value="1" style="shape=partialRectangle;html=1;whiteSpace=wrap;connectable=0;fillColor=none;top=0;left=0;bottom=0;right=0;overflow=hidden;pointerEvents=1;strokeColor=inherit;fontSize=16;fontColor=#000000;" parent="1tKlZqGgc0AsVHu_gf5q-76" vertex="1">
          <mxGeometry width="40" height="30" as="geometry">
            <mxRectangle width="40" height="30" as="alternateBounds" />
          </mxGeometry>
        </mxCell>
        <mxCell id="1tKlZqGgc0AsVHu_gf5q-78" value="유튜브 링크 영상" style="shape=partialRectangle;html=1;whiteSpace=wrap;connectable=0;fillColor=none;top=0;left=0;bottom=0;right=0;align=left;spacingLeft=6;overflow=hidden;strokeColor=inherit;fontSize=15;fontColor=#000000;" parent="1tKlZqGgc0AsVHu_gf5q-76" vertex="1">
          <mxGeometry x="40" width="230" height="30" as="geometry">
            <mxRectangle width="230" height="30" as="alternateBounds" />
          </mxGeometry>
        </mxCell>
        <mxCell id="1tKlZqGgc0AsVHu_gf5q-79" value="" style="shape=tableRow;horizontal=0;startSize=0;swimlaneHead=0;swimlaneBody=0;top=0;left=0;bottom=0;right=0;collapsible=0;dropTarget=0;fillColor=none;points=[[0,0.5],[1,0.5]];portConstraint=eastwest;strokeColor=inherit;fontSize=16;fontColor=#FFFFFF;" parent="1tKlZqGgc0AsVHu_gf5q-75" vertex="1">
          <mxGeometry y="60" width="270" height="30" as="geometry" />
        </mxCell>
        <mxCell id="1tKlZqGgc0AsVHu_gf5q-80" value="2" style="shape=partialRectangle;html=1;whiteSpace=wrap;connectable=0;fillColor=none;top=0;left=0;bottom=0;right=0;overflow=hidden;strokeColor=inherit;fontSize=16;fontColor=#000000;" parent="1tKlZqGgc0AsVHu_gf5q-79" vertex="1">
          <mxGeometry width="40" height="30" as="geometry">
            <mxRectangle width="40" height="30" as="alternateBounds" />
          </mxGeometry>
        </mxCell>
        <mxCell id="1tKlZqGgc0AsVHu_gf5q-81" value="로그인시에만 보임" style="shape=partialRectangle;html=1;whiteSpace=wrap;connectable=0;fillColor=none;top=0;left=0;bottom=0;right=0;align=left;spacingLeft=6;overflow=hidden;strokeColor=inherit;fontSize=15;fontColor=#000000;" parent="1tKlZqGgc0AsVHu_gf5q-79" vertex="1">
          <mxGeometry x="40" width="230" height="30" as="geometry">
            <mxRectangle width="230" height="30" as="alternateBounds" />
          </mxGeometry>
        </mxCell>
        <mxCell id="1tKlZqGgc0AsVHu_gf5q-82" value="" style="shape=tableRow;horizontal=0;startSize=0;swimlaneHead=0;swimlaneBody=0;top=0;left=0;bottom=0;right=0;collapsible=0;dropTarget=0;fillColor=none;points=[[0,0.5],[1,0.5]];portConstraint=eastwest;strokeColor=inherit;fontSize=16;fontColor=#FFFFFF;" parent="1tKlZqGgc0AsVHu_gf5q-75" vertex="1">
          <mxGeometry y="90" width="270" height="30" as="geometry" />
        </mxCell>
        <mxCell id="1tKlZqGgc0AsVHu_gf5q-83" value="3" style="shape=partialRectangle;html=1;whiteSpace=wrap;connectable=0;fillColor=none;top=0;left=0;bottom=0;right=0;overflow=hidden;strokeColor=inherit;fontSize=16;fontColor=#000000;" parent="1tKlZqGgc0AsVHu_gf5q-82" vertex="1">
          <mxGeometry width="40" height="30" as="geometry">
            <mxRectangle width="40" height="30" as="alternateBounds" />
          </mxGeometry>
        </mxCell>
        <mxCell id="1tKlZqGgc0AsVHu_gf5q-84" value="목록 링크로 이동" style="shape=partialRectangle;html=1;whiteSpace=wrap;connectable=0;fillColor=none;top=0;left=0;bottom=0;right=0;align=left;spacingLeft=6;overflow=hidden;strokeColor=inherit;fontSize=15;fontColor=#000000;" parent="1tKlZqGgc0AsVHu_gf5q-82" vertex="1">
          <mxGeometry x="40" width="230" height="30" as="geometry">
            <mxRectangle width="230" height="30" as="alternateBounds" />
          </mxGeometry>
        </mxCell>
        <mxCell id="1tKlZqGgc0AsVHu_gf5q-85" value="" style="shape=tableRow;horizontal=0;startSize=0;swimlaneHead=0;swimlaneBody=0;top=0;left=0;bottom=0;right=0;collapsible=0;dropTarget=0;fillColor=none;points=[[0,0.5],[1,0.5]];portConstraint=eastwest;strokeColor=inherit;fontSize=16;fontColor=#FFFFFF;" parent="1tKlZqGgc0AsVHu_gf5q-75" vertex="1">
          <mxGeometry y="120" width="270" height="30" as="geometry" />
        </mxCell>
        <mxCell id="1tKlZqGgc0AsVHu_gf5q-86" value="4" style="shape=partialRectangle;html=1;whiteSpace=wrap;connectable=0;fillColor=none;top=0;left=0;bottom=0;right=0;overflow=hidden;strokeColor=inherit;fontSize=16;fontColor=#000000;" parent="1tKlZqGgc0AsVHu_gf5q-85" vertex="1">
          <mxGeometry width="40" height="30" as="geometry">
            <mxRectangle width="40" height="30" as="alternateBounds" />
          </mxGeometry>
        </mxCell>
        <mxCell id="1tKlZqGgc0AsVHu_gf5q-87" value="로그인 / 로그아웃시 로그인" style="shape=partialRectangle;html=1;whiteSpace=wrap;connectable=0;fillColor=none;top=0;left=0;bottom=0;right=0;align=left;spacingLeft=6;overflow=hidden;strokeColor=inherit;fontSize=15;fontColor=#000000;" parent="1tKlZqGgc0AsVHu_gf5q-85" vertex="1">
          <mxGeometry x="40" width="230" height="30" as="geometry">
            <mxRectangle width="230" height="30" as="alternateBounds" />
          </mxGeometry>
        </mxCell>
        <mxCell id="1tKlZqGgc0AsVHu_gf5q-88" value="" style="line;strokeWidth=1;html=1;rounded=0;shadow=0;labelBackgroundColor=none;fillColor=none;fontFamily=Verdana;fontSize=14;fontColor=#000000;align=center;comic=1;" parent="1" vertex="1">
          <mxGeometry x="1580" y="110" width="740" height="10" as="geometry" />
        </mxCell>
        <mxCell id="1tKlZqGgc0AsVHu_gf5q-89" value="로그인" style="text;html=1;strokeColor=none;fillColor=none;align=center;verticalAlign=middle;whiteSpace=wrap;rounded=0;fontColor=#000000;" parent="1" vertex="1">
          <mxGeometry x="2230" y="140" width="60" height="30" as="geometry" />
        </mxCell>
        <mxCell id="1tKlZqGgc0AsVHu_gf5q-90" value="FOOTER" style="text;html=1;strokeColor=none;fillColor=none;align=center;verticalAlign=middle;whiteSpace=wrap;rounded=0;fontColor=#000000;" parent="1" vertex="1">
          <mxGeometry x="1600" y="140" width="60" height="30" as="geometry" />
        </mxCell>
        <mxCell id="1tKlZqGgc0AsVHu_gf5q-91" value="&lt;font color=&quot;#ffffff&quot;&gt;2&lt;/font&gt;" style="ellipse;whiteSpace=wrap;html=1;aspect=fixed;fillColor=#F83232;strokeColor=#b85450;" parent="1" vertex="1">
          <mxGeometry x="1650" y="-60" width="20" height="20" as="geometry" />
        </mxCell>
        <mxCell id="1tKlZqGgc0AsVHu_gf5q-92" value="&lt;font color=&quot;#ffffff&quot;&gt;3&lt;/font&gt;" style="ellipse;whiteSpace=wrap;html=1;aspect=fixed;fillColor=#F83232;strokeColor=#b85450;" parent="1" vertex="1">
          <mxGeometry x="2220" y="130" width="20" height="20" as="geometry" />
        </mxCell>
        <mxCell id="1tKlZqGgc0AsVHu_gf5q-93" value="&lt;font style=&quot;font-size: 18px;&quot;&gt;빌립보서 4장 10-23절&lt;/font&gt;" style="text;html=1;points=[];align=left;verticalAlign=top;spacingTop=-4;fontSize=14;fontFamily=Verdana" parent="1" vertex="1">
          <mxGeometry x="1860" y="-460" width="60" height="20" as="geometry" />
        </mxCell>
        <mxCell id="1tKlZqGgc0AsVHu_gf5q-94" value="홍길동 목사" style="shape=partialRectangle;html=1;whiteSpace=wrap;connectable=0;fillColor=none;top=0;left=0;bottom=0;right=0;align=left;spacingLeft=6;overflow=hidden;strokeColor=inherit;fontSize=15;fontColor=#000000;" parent="1" vertex="1">
          <mxGeometry x="1680" y="-400" width="230" height="30" as="geometry">
            <mxRectangle width="230" height="30" as="alternateBounds" />
          </mxGeometry>
        </mxCell>
        <mxCell id="1tKlZqGgc0AsVHu_gf5q-95" value="유튜브 영상" style="rounded=0;whiteSpace=wrap;html=1;fontSize=18;" parent="1" vertex="1">
          <mxGeometry x="1682.5" y="-360" width="515" height="285" as="geometry" />
        </mxCell>
        <mxCell id="1tKlZqGgc0AsVHu_gf5q-96" value="목록" style="text;html=1;strokeColor=none;fillColor=none;align=center;verticalAlign=middle;whiteSpace=wrap;rounded=0;fontColor=#000000;" parent="1" vertex="1">
          <mxGeometry x="2137.5" y="-60" width="60" height="30" as="geometry" />
        </mxCell>
        <mxCell id="1tKlZqGgc0AsVHu_gf5q-97" value="수정" style="rounded=0;whiteSpace=wrap;html=1;" parent="1" vertex="1">
          <mxGeometry x="1682.5" y="-60" width="75" height="30" as="geometry" />
        </mxCell>
        <mxCell id="1tKlZqGgc0AsVHu_gf5q-98" value="&lt;font color=&quot;#ffffff&quot;&gt;3&lt;/font&gt;" style="ellipse;whiteSpace=wrap;html=1;aspect=fixed;fillColor=#F83232;strokeColor=#b85450;" parent="1" vertex="1">
          <mxGeometry x="2130" y="-60" width="20" height="20" as="geometry" />
        </mxCell>
        <mxCell id="1tKlZqGgc0AsVHu_gf5q-99" value="삭제" style="rounded=0;whiteSpace=wrap;html=1;" parent="1" vertex="1">
          <mxGeometry x="1775" y="-60" width="75" height="30" as="geometry" />
        </mxCell>
        <mxCell id="1tKlZqGgc0AsVHu_gf5q-100" value="" style="whiteSpace=wrap;html=1;rounded=0;shadow=0;labelBackgroundColor=none;strokeColor=#000000;strokeWidth=1;fillColor=none;fontFamily=Verdana;fontSize=12;fontColor=#000000;align=center;comic=1;" parent="1" vertex="1">
          <mxGeometry x="460" y="290" width="740" height="810" as="geometry" />
        </mxCell>
        <mxCell id="1tKlZqGgc0AsVHu_gf5q-101" value="LOGO" style="whiteSpace=wrap;html=1;rounded=0;shadow=0;labelBackgroundColor=none;strokeWidth=1;fontFamily=Verdana;fontSize=28;align=center;comic=1;" parent="1" vertex="1">
          <mxGeometry x="480" y="330" width="190" height="50" as="geometry" />
        </mxCell>
        <mxCell id="1tKlZqGgc0AsVHu_gf5q-102" value="교회 소개" style="text;html=1;points=[];align=left;verticalAlign=top;spacingTop=-4;fontSize=14;fontFamily=Verdana" parent="1" vertex="1">
          <mxGeometry x="730" y="345" width="60" height="20" as="geometry" />
        </mxCell>
        <mxCell id="1tKlZqGgc0AsVHu_gf5q-103" value="예배와 말씀" style="text;html=1;points=[];align=left;verticalAlign=top;spacingTop=-4;fontSize=14;fontFamily=Verdana" parent="1" vertex="1">
          <mxGeometry x="830" y="345" width="60" height="20" as="geometry" />
        </mxCell>
        <mxCell id="1tKlZqGgc0AsVHu_gf5q-104" value="양육과 교육" style="text;html=1;points=[];align=left;verticalAlign=top;spacingTop=-4;fontSize=14;fontFamily=Verdana" parent="1" vertex="1">
          <mxGeometry x="930" y="345" width="60" height="20" as="geometry" />
        </mxCell>
        <mxCell id="1tKlZqGgc0AsVHu_gf5q-105" value="돌봄과 선교" style="text;html=1;points=[];align=left;verticalAlign=top;spacingTop=-4;fontSize=14;fontFamily=Verdana" parent="1" vertex="1">
          <mxGeometry x="1030" y="345" width="60" height="20" as="geometry" />
        </mxCell>
        <mxCell id="1tKlZqGgc0AsVHu_gf5q-106" value="" style="line;strokeWidth=1;html=1;rounded=0;shadow=0;labelBackgroundColor=none;fillColor=none;fontFamily=Verdana;fontSize=14;fontColor=#000000;align=center;comic=1;" parent="1" vertex="1">
          <mxGeometry x="460" y="410" width="740" height="10" as="geometry" />
        </mxCell>
        <mxCell id="1tKlZqGgc0AsVHu_gf5q-107" value="&lt;font color=&quot;#ffffff&quot;&gt;1&lt;/font&gt;" style="ellipse;whiteSpace=wrap;html=1;aspect=fixed;fillColor=#F83232;strokeColor=#b85450;" parent="1" vertex="1">
          <mxGeometry x="530" y="570" width="20" height="20" as="geometry" />
        </mxCell>
        <mxCell id="1tKlZqGgc0AsVHu_gf5q-108" value="화면 설명" style="shape=table;startSize=30;container=1;collapsible=0;childLayout=tableLayout;fixedRows=1;rowLines=0;fontStyle=0;strokeColor=default;fontSize=16;fontColor=#000000;fillColor=#CCCCCC;" parent="1" vertex="1">
          <mxGeometry x="1240" y="290" width="270" height="150" as="geometry" />
        </mxCell>
        <mxCell id="1tKlZqGgc0AsVHu_gf5q-109" value="" style="shape=tableRow;horizontal=0;startSize=0;swimlaneHead=0;swimlaneBody=0;top=0;left=0;bottom=0;right=0;collapsible=0;dropTarget=0;fillColor=none;points=[[0,0.5],[1,0.5]];portConstraint=eastwest;strokeColor=inherit;fontSize=16;fontColor=#FFFFFF;" parent="1tKlZqGgc0AsVHu_gf5q-108" vertex="1">
          <mxGeometry y="30" width="270" height="30" as="geometry" />
        </mxCell>
        <mxCell id="1tKlZqGgc0AsVHu_gf5q-110" value="1" style="shape=partialRectangle;html=1;whiteSpace=wrap;connectable=0;fillColor=none;top=0;left=0;bottom=0;right=0;overflow=hidden;pointerEvents=1;strokeColor=inherit;fontSize=16;fontColor=#000000;" parent="1tKlZqGgc0AsVHu_gf5q-109" vertex="1">
          <mxGeometry width="40" height="30" as="geometry">
            <mxRectangle width="40" height="30" as="alternateBounds" />
          </mxGeometry>
        </mxCell>
        <mxCell id="1tKlZqGgc0AsVHu_gf5q-111" value="유튜브 링크" style="shape=partialRectangle;html=1;whiteSpace=wrap;connectable=0;fillColor=none;top=0;left=0;bottom=0;right=0;align=left;spacingLeft=6;overflow=hidden;strokeColor=inherit;fontSize=15;fontColor=#000000;" parent="1tKlZqGgc0AsVHu_gf5q-109" vertex="1">
          <mxGeometry x="40" width="230" height="30" as="geometry">
            <mxRectangle width="230" height="30" as="alternateBounds" />
          </mxGeometry>
        </mxCell>
        <mxCell id="1tKlZqGgc0AsVHu_gf5q-112" value="" style="shape=tableRow;horizontal=0;startSize=0;swimlaneHead=0;swimlaneBody=0;top=0;left=0;bottom=0;right=0;collapsible=0;dropTarget=0;fillColor=none;points=[[0,0.5],[1,0.5]];portConstraint=eastwest;strokeColor=inherit;fontSize=16;fontColor=#FFFFFF;" parent="1tKlZqGgc0AsVHu_gf5q-108" vertex="1">
          <mxGeometry y="60" width="270" height="30" as="geometry" />
        </mxCell>
        <mxCell id="1tKlZqGgc0AsVHu_gf5q-113" value="2" style="shape=partialRectangle;html=1;whiteSpace=wrap;connectable=0;fillColor=none;top=0;left=0;bottom=0;right=0;overflow=hidden;strokeColor=inherit;fontSize=16;fontColor=#000000;" parent="1tKlZqGgc0AsVHu_gf5q-112" vertex="1">
          <mxGeometry width="40" height="30" as="geometry">
            <mxRectangle width="40" height="30" as="alternateBounds" />
          </mxGeometry>
        </mxCell>
        <mxCell id="1tKlZqGgc0AsVHu_gf5q-114" value="글등록처리" style="shape=partialRectangle;html=1;whiteSpace=wrap;connectable=0;fillColor=none;top=0;left=0;bottom=0;right=0;align=left;spacingLeft=6;overflow=hidden;strokeColor=inherit;fontSize=15;fontColor=#000000;" parent="1tKlZqGgc0AsVHu_gf5q-112" vertex="1">
          <mxGeometry x="40" width="230" height="30" as="geometry">
            <mxRectangle width="230" height="30" as="alternateBounds" />
          </mxGeometry>
        </mxCell>
        <mxCell id="1tKlZqGgc0AsVHu_gf5q-115" value="" style="shape=tableRow;horizontal=0;startSize=0;swimlaneHead=0;swimlaneBody=0;top=0;left=0;bottom=0;right=0;collapsible=0;dropTarget=0;fillColor=none;points=[[0,0.5],[1,0.5]];portConstraint=eastwest;strokeColor=inherit;fontSize=16;fontColor=#FFFFFF;" parent="1tKlZqGgc0AsVHu_gf5q-108" vertex="1">
          <mxGeometry y="90" width="270" height="30" as="geometry" />
        </mxCell>
        <mxCell id="1tKlZqGgc0AsVHu_gf5q-116" value="3" style="shape=partialRectangle;html=1;whiteSpace=wrap;connectable=0;fillColor=none;top=0;left=0;bottom=0;right=0;overflow=hidden;strokeColor=inherit;fontSize=16;fontColor=#000000;" parent="1tKlZqGgc0AsVHu_gf5q-115" vertex="1">
          <mxGeometry width="40" height="30" as="geometry">
            <mxRectangle width="40" height="30" as="alternateBounds" />
          </mxGeometry>
        </mxCell>
        <mxCell id="1tKlZqGgc0AsVHu_gf5q-117" value="목록 링크로 이동" style="shape=partialRectangle;html=1;whiteSpace=wrap;connectable=0;fillColor=none;top=0;left=0;bottom=0;right=0;align=left;spacingLeft=6;overflow=hidden;strokeColor=inherit;fontSize=15;fontColor=#000000;" parent="1tKlZqGgc0AsVHu_gf5q-115" vertex="1">
          <mxGeometry x="40" width="230" height="30" as="geometry">
            <mxRectangle width="230" height="30" as="alternateBounds" />
          </mxGeometry>
        </mxCell>
        <mxCell id="1tKlZqGgc0AsVHu_gf5q-118" value="" style="shape=tableRow;horizontal=0;startSize=0;swimlaneHead=0;swimlaneBody=0;top=0;left=0;bottom=0;right=0;collapsible=0;dropTarget=0;fillColor=none;points=[[0,0.5],[1,0.5]];portConstraint=eastwest;strokeColor=inherit;fontSize=16;fontColor=#FFFFFF;" parent="1tKlZqGgc0AsVHu_gf5q-108" vertex="1">
          <mxGeometry y="120" width="270" height="30" as="geometry" />
        </mxCell>
        <mxCell id="1tKlZqGgc0AsVHu_gf5q-119" value="4" style="shape=partialRectangle;html=1;whiteSpace=wrap;connectable=0;fillColor=none;top=0;left=0;bottom=0;right=0;overflow=hidden;strokeColor=inherit;fontSize=16;fontColor=#000000;" parent="1tKlZqGgc0AsVHu_gf5q-118" vertex="1">
          <mxGeometry width="40" height="30" as="geometry">
            <mxRectangle width="40" height="30" as="alternateBounds" />
          </mxGeometry>
        </mxCell>
        <mxCell id="1tKlZqGgc0AsVHu_gf5q-120" value="로그아웃처리" style="shape=partialRectangle;html=1;whiteSpace=wrap;connectable=0;fillColor=none;top=0;left=0;bottom=0;right=0;align=left;spacingLeft=6;overflow=hidden;strokeColor=inherit;fontSize=15;fontColor=#000000;" parent="1tKlZqGgc0AsVHu_gf5q-118" vertex="1">
          <mxGeometry x="40" width="230" height="30" as="geometry">
            <mxRectangle width="230" height="30" as="alternateBounds" />
          </mxGeometry>
        </mxCell>
        <mxCell id="1tKlZqGgc0AsVHu_gf5q-121" value="" style="line;strokeWidth=1;html=1;rounded=0;shadow=0;labelBackgroundColor=none;fillColor=none;fontFamily=Verdana;fontSize=14;fontColor=#000000;align=center;comic=1;" parent="1" vertex="1">
          <mxGeometry x="460" y="1020" width="740" height="10" as="geometry" />
        </mxCell>
        <mxCell id="1tKlZqGgc0AsVHu_gf5q-122" value="로그아웃" style="text;html=1;strokeColor=none;fillColor=none;align=center;verticalAlign=middle;whiteSpace=wrap;rounded=0;fontColor=#000000;" parent="1" vertex="1">
          <mxGeometry x="1110" y="1050" width="60" height="30" as="geometry" />
        </mxCell>
        <mxCell id="1tKlZqGgc0AsVHu_gf5q-123" value="FOOTER" style="text;html=1;strokeColor=none;fillColor=none;align=center;verticalAlign=middle;whiteSpace=wrap;rounded=0;fontColor=#000000;" parent="1" vertex="1">
          <mxGeometry x="480" y="1050" width="60" height="30" as="geometry" />
        </mxCell>
        <mxCell id="1tKlZqGgc0AsVHu_gf5q-124" value="&lt;font color=&quot;#ffffff&quot;&gt;2&lt;/font&gt;" style="ellipse;whiteSpace=wrap;html=1;aspect=fixed;fillColor=#F83232;strokeColor=#b85450;" parent="1" vertex="1">
          <mxGeometry x="530" y="850" width="20" height="20" as="geometry" />
        </mxCell>
        <mxCell id="1tKlZqGgc0AsVHu_gf5q-125" value="&lt;font color=&quot;#ffffff&quot;&gt;4&lt;/font&gt;" style="ellipse;whiteSpace=wrap;html=1;aspect=fixed;fillColor=#F83232;strokeColor=#b85450;" parent="1" vertex="1">
          <mxGeometry x="1100" y="1040" width="20" height="20" as="geometry" />
        </mxCell>
        <mxCell id="1tKlZqGgc0AsVHu_gf5q-126" value="&lt;font style=&quot;font-size: 18px;&quot;&gt;빌립보서 4장 10-23절&lt;/font&gt;" style="text;html=1;points=[];align=left;verticalAlign=top;spacingTop=-4;fontSize=14;fontFamily=Verdana" parent="1" vertex="1">
          <mxGeometry x="740" y="450" width="60" height="20" as="geometry" />
        </mxCell>
        <mxCell id="1tKlZqGgc0AsVHu_gf5q-127" value="홍길동 목사" style="shape=partialRectangle;html=1;whiteSpace=wrap;connectable=0;fillColor=none;top=0;left=0;bottom=0;right=0;align=left;spacingLeft=6;overflow=hidden;strokeColor=inherit;fontSize=15;fontColor=#000000;" parent="1" vertex="1">
          <mxGeometry x="560" y="510" width="230" height="30" as="geometry">
            <mxRectangle width="230" height="30" as="alternateBounds" />
          </mxGeometry>
        </mxCell>
        <mxCell id="1tKlZqGgc0AsVHu_gf5q-128" value="유튜브 영상" style="rounded=0;whiteSpace=wrap;html=1;fontSize=18;" parent="1" vertex="1">
          <mxGeometry x="562.5" y="550" width="515" height="285" as="geometry" />
        </mxCell>
        <mxCell id="1tKlZqGgc0AsVHu_gf5q-129" value="목록" style="text;html=1;strokeColor=none;fillColor=none;align=center;verticalAlign=middle;whiteSpace=wrap;rounded=0;fontColor=#000000;" parent="1" vertex="1">
          <mxGeometry x="1017.5" y="850" width="60" height="30" as="geometry" />
        </mxCell>
        <mxCell id="1tKlZqGgc0AsVHu_gf5q-130" value="등록" style="rounded=0;whiteSpace=wrap;html=1;" parent="1" vertex="1">
          <mxGeometry x="562.5" y="850" width="75" height="30" as="geometry" />
        </mxCell>
        <mxCell id="1tKlZqGgc0AsVHu_gf5q-131" value="&lt;font color=&quot;#ffffff&quot;&gt;3&lt;/font&gt;" style="ellipse;whiteSpace=wrap;html=1;aspect=fixed;fillColor=#F83232;strokeColor=#b85450;" parent="1" vertex="1">
          <mxGeometry x="1010" y="850" width="20" height="20" as="geometry" />
        </mxCell>
        <mxCell id="1tKlZqGgc0AsVHu_gf5q-132" value="" style="whiteSpace=wrap;html=1;rounded=0;shadow=0;labelBackgroundColor=none;strokeColor=#000000;strokeWidth=1;fillColor=none;fontFamily=Verdana;fontSize=12;fontColor=#000000;align=center;comic=1;" parent="1" vertex="1">
          <mxGeometry x="1580" y="290" width="740" height="810" as="geometry" />
        </mxCell>
        <mxCell id="1tKlZqGgc0AsVHu_gf5q-133" value="LOGO" style="whiteSpace=wrap;html=1;rounded=0;shadow=0;labelBackgroundColor=none;strokeWidth=1;fontFamily=Verdana;fontSize=28;align=center;comic=1;" parent="1" vertex="1">
          <mxGeometry x="1600" y="330" width="190" height="50" as="geometry" />
        </mxCell>
        <mxCell id="1tKlZqGgc0AsVHu_gf5q-134" value="교회 소개" style="text;html=1;points=[];align=left;verticalAlign=top;spacingTop=-4;fontSize=14;fontFamily=Verdana" parent="1" vertex="1">
          <mxGeometry x="1850" y="345" width="60" height="20" as="geometry" />
        </mxCell>
        <mxCell id="1tKlZqGgc0AsVHu_gf5q-135" value="예배와 말씀" style="text;html=1;points=[];align=left;verticalAlign=top;spacingTop=-4;fontSize=14;fontFamily=Verdana" parent="1" vertex="1">
          <mxGeometry x="1950" y="345" width="60" height="20" as="geometry" />
        </mxCell>
        <mxCell id="1tKlZqGgc0AsVHu_gf5q-136" value="양육과 교육" style="text;html=1;points=[];align=left;verticalAlign=top;spacingTop=-4;fontSize=14;fontFamily=Verdana" parent="1" vertex="1">
          <mxGeometry x="2050" y="345" width="60" height="20" as="geometry" />
        </mxCell>
        <mxCell id="1tKlZqGgc0AsVHu_gf5q-137" value="돌봄과 선교" style="text;html=1;points=[];align=left;verticalAlign=top;spacingTop=-4;fontSize=14;fontFamily=Verdana" parent="1" vertex="1">
          <mxGeometry x="2150" y="345" width="60" height="20" as="geometry" />
        </mxCell>
        <mxCell id="1tKlZqGgc0AsVHu_gf5q-138" value="" style="line;strokeWidth=1;html=1;rounded=0;shadow=0;labelBackgroundColor=none;fillColor=none;fontFamily=Verdana;fontSize=14;fontColor=#000000;align=center;comic=1;" parent="1" vertex="1">
          <mxGeometry x="1580" y="410" width="740" height="10" as="geometry" />
        </mxCell>
        <mxCell id="1tKlZqGgc0AsVHu_gf5q-139" value="&lt;font color=&quot;#ffffff&quot;&gt;1&lt;/font&gt;" style="ellipse;whiteSpace=wrap;html=1;aspect=fixed;fillColor=#F83232;strokeColor=#b85450;" parent="1" vertex="1">
          <mxGeometry x="1650" y="570" width="20" height="20" as="geometry" />
        </mxCell>
        <mxCell id="1tKlZqGgc0AsVHu_gf5q-140" value="화면 설명" style="shape=table;startSize=30;container=1;collapsible=0;childLayout=tableLayout;fixedRows=1;rowLines=0;fontStyle=0;strokeColor=default;fontSize=16;fontColor=#000000;fillColor=#CCCCCC;" parent="1" vertex="1">
          <mxGeometry x="2360" y="290" width="270" height="150" as="geometry" />
        </mxCell>
        <mxCell id="1tKlZqGgc0AsVHu_gf5q-141" value="" style="shape=tableRow;horizontal=0;startSize=0;swimlaneHead=0;swimlaneBody=0;top=0;left=0;bottom=0;right=0;collapsible=0;dropTarget=0;fillColor=none;points=[[0,0.5],[1,0.5]];portConstraint=eastwest;strokeColor=inherit;fontSize=16;fontColor=#FFFFFF;" parent="1tKlZqGgc0AsVHu_gf5q-140" vertex="1">
          <mxGeometry y="30" width="270" height="30" as="geometry" />
        </mxCell>
        <mxCell id="1tKlZqGgc0AsVHu_gf5q-142" value="1" style="shape=partialRectangle;html=1;whiteSpace=wrap;connectable=0;fillColor=none;top=0;left=0;bottom=0;right=0;overflow=hidden;pointerEvents=1;strokeColor=inherit;fontSize=16;fontColor=#000000;" parent="1tKlZqGgc0AsVHu_gf5q-141" vertex="1">
          <mxGeometry width="40" height="30" as="geometry">
            <mxRectangle width="40" height="30" as="alternateBounds" />
          </mxGeometry>
        </mxCell>
        <mxCell id="1tKlZqGgc0AsVHu_gf5q-143" value="유튜브 링크" style="shape=partialRectangle;html=1;whiteSpace=wrap;connectable=0;fillColor=none;top=0;left=0;bottom=0;right=0;align=left;spacingLeft=6;overflow=hidden;strokeColor=inherit;fontSize=15;fontColor=#000000;" parent="1tKlZqGgc0AsVHu_gf5q-141" vertex="1">
          <mxGeometry x="40" width="230" height="30" as="geometry">
            <mxRectangle width="230" height="30" as="alternateBounds" />
          </mxGeometry>
        </mxCell>
        <mxCell id="1tKlZqGgc0AsVHu_gf5q-144" value="" style="shape=tableRow;horizontal=0;startSize=0;swimlaneHead=0;swimlaneBody=0;top=0;left=0;bottom=0;right=0;collapsible=0;dropTarget=0;fillColor=none;points=[[0,0.5],[1,0.5]];portConstraint=eastwest;strokeColor=inherit;fontSize=16;fontColor=#FFFFFF;" parent="1tKlZqGgc0AsVHu_gf5q-140" vertex="1">
          <mxGeometry y="60" width="270" height="30" as="geometry" />
        </mxCell>
        <mxCell id="1tKlZqGgc0AsVHu_gf5q-145" value="2" style="shape=partialRectangle;html=1;whiteSpace=wrap;connectable=0;fillColor=none;top=0;left=0;bottom=0;right=0;overflow=hidden;strokeColor=inherit;fontSize=16;fontColor=#000000;" parent="1tKlZqGgc0AsVHu_gf5q-144" vertex="1">
          <mxGeometry width="40" height="30" as="geometry">
            <mxRectangle width="40" height="30" as="alternateBounds" />
          </mxGeometry>
        </mxCell>
        <mxCell id="1tKlZqGgc0AsVHu_gf5q-146" value="수정처리" style="shape=partialRectangle;html=1;whiteSpace=wrap;connectable=0;fillColor=none;top=0;left=0;bottom=0;right=0;align=left;spacingLeft=6;overflow=hidden;strokeColor=inherit;fontSize=15;fontColor=#000000;" parent="1tKlZqGgc0AsVHu_gf5q-144" vertex="1">
          <mxGeometry x="40" width="230" height="30" as="geometry">
            <mxRectangle width="230" height="30" as="alternateBounds" />
          </mxGeometry>
        </mxCell>
        <mxCell id="1tKlZqGgc0AsVHu_gf5q-147" value="" style="shape=tableRow;horizontal=0;startSize=0;swimlaneHead=0;swimlaneBody=0;top=0;left=0;bottom=0;right=0;collapsible=0;dropTarget=0;fillColor=none;points=[[0,0.5],[1,0.5]];portConstraint=eastwest;strokeColor=inherit;fontSize=16;fontColor=#FFFFFF;" parent="1tKlZqGgc0AsVHu_gf5q-140" vertex="1">
          <mxGeometry y="90" width="270" height="30" as="geometry" />
        </mxCell>
        <mxCell id="1tKlZqGgc0AsVHu_gf5q-148" value="3" style="shape=partialRectangle;html=1;whiteSpace=wrap;connectable=0;fillColor=none;top=0;left=0;bottom=0;right=0;overflow=hidden;strokeColor=inherit;fontSize=16;fontColor=#000000;" parent="1tKlZqGgc0AsVHu_gf5q-147" vertex="1">
          <mxGeometry width="40" height="30" as="geometry">
            <mxRectangle width="40" height="30" as="alternateBounds" />
          </mxGeometry>
        </mxCell>
        <mxCell id="1tKlZqGgc0AsVHu_gf5q-149" value="목록 링크로 이동" style="shape=partialRectangle;html=1;whiteSpace=wrap;connectable=0;fillColor=none;top=0;left=0;bottom=0;right=0;align=left;spacingLeft=6;overflow=hidden;strokeColor=inherit;fontSize=15;fontColor=#000000;" parent="1tKlZqGgc0AsVHu_gf5q-147" vertex="1">
          <mxGeometry x="40" width="230" height="30" as="geometry">
            <mxRectangle width="230" height="30" as="alternateBounds" />
          </mxGeometry>
        </mxCell>
        <mxCell id="1tKlZqGgc0AsVHu_gf5q-150" value="" style="shape=tableRow;horizontal=0;startSize=0;swimlaneHead=0;swimlaneBody=0;top=0;left=0;bottom=0;right=0;collapsible=0;dropTarget=0;fillColor=none;points=[[0,0.5],[1,0.5]];portConstraint=eastwest;strokeColor=inherit;fontSize=16;fontColor=#FFFFFF;" parent="1tKlZqGgc0AsVHu_gf5q-140" vertex="1">
          <mxGeometry y="120" width="270" height="30" as="geometry" />
        </mxCell>
        <mxCell id="1tKlZqGgc0AsVHu_gf5q-151" value="4" style="shape=partialRectangle;html=1;whiteSpace=wrap;connectable=0;fillColor=none;top=0;left=0;bottom=0;right=0;overflow=hidden;strokeColor=inherit;fontSize=16;fontColor=#000000;" parent="1tKlZqGgc0AsVHu_gf5q-150" vertex="1">
          <mxGeometry width="40" height="30" as="geometry">
            <mxRectangle width="40" height="30" as="alternateBounds" />
          </mxGeometry>
        </mxCell>
        <mxCell id="1tKlZqGgc0AsVHu_gf5q-152" value="로그아웃처리" style="shape=partialRectangle;html=1;whiteSpace=wrap;connectable=0;fillColor=none;top=0;left=0;bottom=0;right=0;align=left;spacingLeft=6;overflow=hidden;strokeColor=inherit;fontSize=15;fontColor=#000000;" parent="1tKlZqGgc0AsVHu_gf5q-150" vertex="1">
          <mxGeometry x="40" width="230" height="30" as="geometry">
            <mxRectangle width="230" height="30" as="alternateBounds" />
          </mxGeometry>
        </mxCell>
        <mxCell id="1tKlZqGgc0AsVHu_gf5q-153" value="" style="line;strokeWidth=1;html=1;rounded=0;shadow=0;labelBackgroundColor=none;fillColor=none;fontFamily=Verdana;fontSize=14;fontColor=#000000;align=center;comic=1;" parent="1" vertex="1">
          <mxGeometry x="1580" y="1020" width="740" height="10" as="geometry" />
        </mxCell>
        <mxCell id="1tKlZqGgc0AsVHu_gf5q-154" value="로그아웃" style="text;html=1;strokeColor=none;fillColor=none;align=center;verticalAlign=middle;whiteSpace=wrap;rounded=0;fontColor=#000000;" parent="1" vertex="1">
          <mxGeometry x="2230" y="1050" width="60" height="30" as="geometry" />
        </mxCell>
        <mxCell id="1tKlZqGgc0AsVHu_gf5q-155" value="FOOTER" style="text;html=1;strokeColor=none;fillColor=none;align=center;verticalAlign=middle;whiteSpace=wrap;rounded=0;fontColor=#000000;" parent="1" vertex="1">
          <mxGeometry x="1600" y="1050" width="60" height="30" as="geometry" />
        </mxCell>
        <mxCell id="1tKlZqGgc0AsVHu_gf5q-156" value="&lt;font color=&quot;#ffffff&quot;&gt;2&lt;/font&gt;" style="ellipse;whiteSpace=wrap;html=1;aspect=fixed;fillColor=#F83232;strokeColor=#b85450;" parent="1" vertex="1">
          <mxGeometry x="1650" y="850" width="20" height="20" as="geometry" />
        </mxCell>
        <mxCell id="1tKlZqGgc0AsVHu_gf5q-157" value="&lt;font color=&quot;#ffffff&quot;&gt;4&lt;/font&gt;" style="ellipse;whiteSpace=wrap;html=1;aspect=fixed;fillColor=#F83232;strokeColor=#b85450;" parent="1" vertex="1">
          <mxGeometry x="2220" y="1040" width="20" height="20" as="geometry" />
        </mxCell>
        <mxCell id="1tKlZqGgc0AsVHu_gf5q-158" value="&lt;font style=&quot;font-size: 18px;&quot;&gt;빌립보서 4장 10-23절&lt;/font&gt;" style="text;html=1;points=[];align=left;verticalAlign=top;spacingTop=-4;fontSize=14;fontFamily=Verdana" parent="1" vertex="1">
          <mxGeometry x="1860" y="450" width="60" height="20" as="geometry" />
        </mxCell>
        <mxCell id="1tKlZqGgc0AsVHu_gf5q-159" value="홍길동 목사" style="shape=partialRectangle;html=1;whiteSpace=wrap;connectable=0;fillColor=none;top=0;left=0;bottom=0;right=0;align=left;spacingLeft=6;overflow=hidden;strokeColor=inherit;fontSize=15;fontColor=#000000;" parent="1" vertex="1">
          <mxGeometry x="1680" y="510" width="230" height="30" as="geometry">
            <mxRectangle width="230" height="30" as="alternateBounds" />
          </mxGeometry>
        </mxCell>
        <mxCell id="1tKlZqGgc0AsVHu_gf5q-160" value="유튜브 영상" style="rounded=0;whiteSpace=wrap;html=1;fontSize=18;" parent="1" vertex="1">
          <mxGeometry x="1682.5" y="550" width="515" height="285" as="geometry" />
        </mxCell>
        <mxCell id="1tKlZqGgc0AsVHu_gf5q-161" value="목록" style="text;html=1;strokeColor=none;fillColor=none;align=center;verticalAlign=middle;whiteSpace=wrap;rounded=0;fontColor=#000000;" parent="1" vertex="1">
          <mxGeometry x="2137.5" y="850" width="60" height="30" as="geometry" />
        </mxCell>
        <mxCell id="1tKlZqGgc0AsVHu_gf5q-162" value="수정" style="rounded=0;whiteSpace=wrap;html=1;" parent="1" vertex="1">
          <mxGeometry x="1682.5" y="850" width="75" height="30" as="geometry" />
        </mxCell>
        <mxCell id="1tKlZqGgc0AsVHu_gf5q-163" value="&lt;font color=&quot;#ffffff&quot;&gt;3&lt;/font&gt;" style="ellipse;whiteSpace=wrap;html=1;aspect=fixed;fillColor=#F83232;strokeColor=#b85450;" parent="1" vertex="1">
          <mxGeometry x="2130" y="850" width="20" height="20" as="geometry" />
        </mxCell>
      </root>
    </mxGraphModel>
  </diagram>
</mxfile>
